/* XPM */
static char * stick_inactive_xpm[] = {
"32 34 29 1",
" 	c None",
".	c #8E8E8E",
"+	c #DFDFDF",
"@	c #DCDCDC",
"#	c #BBBDBD",
"$	c #9EA1A2",
"%	c #919494",
"&	c #9FA1A2",
"*	c #CDCECF",
"=	c #949798",
"-	c #B7B7B9",
";	c #D8D8D9",
">	c #D7D8D8",
",	c #B6B8B8",
"'	c #989A9B",
")	c #DBDCDC",
"!	c #979A9C",
"~	c #B6B7B8",
"{	c #9EA0A1",
"]	c #D7D9D9",
"^	c #919495",
"/	c #929596",
"(	c #9FA2A3",
"_	c #BCBDBE",
":	c #B5B7B8",
"<	c #DBDBDB",
"[	c #959898",
"}	c #CECFCF",
"|	c #D7D7D7",
"................................",
"++++++++++++++++++++++++++++++++",
"@@@@@@@@@@@@@@@@@@@@@@@@@@@@@@@@",
"@@@@@@@@@@@@@@@@@@@@@@@@@@@@@@@@",
"@@@@@@@@@@@@@@@@@@@@@@@@@@@@@@@@",
"@@@@@@@@@@@@@@@@@@@@@@@@@@@@@@@@",
"@@@@@@@@@@@@@@@@@@@@@@@@@@@@@@@@",
"@@@@@@@@@@@@@@@@@@@@@@@@@@@@@@@@",
"@@@@@@@@@@@@@@@@@@@@@@@@@@@@@@@@",
"@@@@@@@@@@@@@@@@@@@@@@@@@@@@@@@@",
"@@@@@@@@@@@@@#$%%&#@@@@@@@@@@@@@",
"@@@@@@@@@@@*=-;@@>,=*@@@@@@@@@@@",
"@@@@@@@@@@*')@@@@@@)!*@@@@@@@@@@",
"@@@@@@@@@@=)@@@@@@@@)=@@@@@@@@@@",
"@@@@@@@@@#-@@@@@@@@@@~#@@@@@@@@@",
"@@@@@@@@@{;@@@@@@@@@@]&@@@@@@@@@",
"@@@@@@@@@^@@@@@@@@@@@@^@@@@@@@@@",
"@@@@@@@@@^@@@@@@@@@@@@/@@@@@@@@@",
"@@@@@@@@@$;@@@@@@@@@@](@@@@@@@@@",
"@@@@@@@@@_,@@@@@@@@@@:_@@@@@@@@@",
"@@@@@@@@@@=)@@@@@@@@<[@@@@@@@@@@",
"@@@@@@@@@@*!)@@@@@@<!}@@@@@@@@@@",
"@@@@@@@@@@@*=~]@@|:=}@@@@@@@@@@@",
"@@@@@@@@@@@@@#(^^(#@@@@@@@@@@@@@",
"@@@@@@@@@@@@@@@@@@@@@@@@@@@@@@@@",
"@@@@@@@@@@@@@@@@@@@@@@@@@@@@@@@@",
"@@@@@@@@@@@@@@@@@@@@@@@@@@@@@@@@",
"@@@@@@@@@@@@@@@@@@@@@@@@@@@@@@@@",
"@@@@@@@@@@@@@@@@@@@@@@@@@@@@@@@@",
"@@@@@@@@@@@@@@@@@@@@@@@@@@@@@@@@",
"@@@@@@@@@@@@@@@@@@@@@@@@@@@@@@@@",
"@@@@@@@@@@@@@@@@@@@@@@@@@@@@@@@@",
"@@@@@@@@@@@@@@@@@@@@@@@@@@@@@@@@",
"@@@@@@@@@@@@@@@@@@@@@@@@@@@@@@@@"};
