<svg style="clip-rule:evenodd;fill-rule:evenodd;stroke-linejoin:round;stroke-miterlimit:2" version="1.1" viewBox="0 0 48 48" xmlns="http://www.w3.org/2000/svg">
 <path d="m2 38.39l0.391 6.157c0 0.639 0.522 1.153 1.172 1.153h40.869c0.649 0 1.172-0.514 1.172-1.153l0.39-6.157h-43.994z" style="fill-rule:nonzero;fill:url(#_Linear1)"/>
 <path d="m5.518 2.301h36.576c0.649 0 1.171 0.514 1.171 1.152l2.735 34.751c0 0.639-0.523 1.153-1.172 1.153h-41.653c-0.649 0-1.172-0.514-1.172-1.153l2.344-34.751c0-0.638 0.522-1.152 1.171-1.152z" style="fill-rule:nonzero;fill:url(#_Linear2)"/>
 <rect x="15.055" y="42.206" width="18.026" height="1.209" style="fill:url(#_Linear3)"/>
 <ellipse cx="40.555" cy="42.853" rx="1.669" ry="1.669" style="fill:url(#_Linear4)"/>
 <path d="m41.298 42.524c-0.058-0.116-0.14-0.214-0.246-0.293-0.031-0.024-0.065-0.033-0.103-0.028-0.039 0-0.069 0.024-0.092 0.054s-0.032 0.065-0.026 0.102c5e-3 0.038 0.023 0.068 0.054 0.092 0.07 0.054 0.125 0.119 0.164 0.197s0.058 0.16 0.058 0.248c0 0.076-0.014 0.147-0.044 0.216-0.029 0.068-0.069 0.127-0.119 0.177-0.05 0.049-0.109 0.09-0.177 0.119-0.069 0.029-0.141 0.043-0.216 0.043s-0.147-0.014-0.216-0.043c-0.068-0.029-0.127-0.068-0.177-0.119-0.05-0.049-0.09-0.109-0.119-0.177-0.03-0.069-0.044-0.141-0.044-0.216 0-0.088 0.019-0.17 0.058-0.248s0.093-0.143 0.164-0.197c0.031-0.024 0.049-0.054 0.054-0.092 6e-3 -0.038-3e-3 -0.072-0.026-0.102-0.023-0.031-0.053-0.049-0.091-0.054-0.038 0-0.073 0-0.104 0.028-0.106 0.079-0.188 0.176-0.246 0.293-0.058 0.116-0.087 0.241-0.087 0.373 0 0.112 0.022 0.22 0.066 0.323 0.044 0.104 0.103 0.192 0.178 0.267 0.075 0.074 0.163 0.134 0.266 0.178 0.103 0.043 0.211 0.066 0.324 0.066s0.221-0.023 0.324-0.066c0.103-0.045 0.191-0.104 0.266-0.178 0.074-0.075 0.134-0.164 0.178-0.267s0.066-0.21 0.066-0.323c0-0.132-0.029-0.256-0.087-0.373zm-0.747 0.373c0.038 0 0.07-0.014 0.098-0.042 0.027-0.028 0.041-0.062 0.041-0.098v-0.695c0-0.038-0.014-0.07-0.041-0.098-0.028-0.027-0.06-0.042-0.098-0.042s-0.07 0.013-0.098 0.042c-0.027 0.027-0.041 0.06-0.041 0.098v0.695c0 0.038 0.014 0.071 0.041 0.098 0.028 0.027 0.06 0.042 0.098 0.042z" style="fill-opacity:.67;fill-rule:nonzero;fill:#e3e8ea"/>
 <circle cx="23.997" cy="20" r="12.572" style="fill:#ddd"/>
 <path d="m21.575 17.575v-3.638c0-1.339 1.086-2.426 2.425-2.426s2.425 1.087 2.425 2.426v3.638h3.638c1.339 0 2.426 1.086 2.426 2.425s-1.087 2.425-2.426 2.425h-3.638v3.638c0 1.339-1.086 2.426-2.425 2.426s-2.425-1.087-2.425-2.426v-3.638h-3.638c-1.339 0-2.426-1.086-2.426-2.425s1.087-2.425 2.426-2.425h3.638z" style="fill:#bb2e23"/>
 <defs>
  <linearGradient id="_Linear1" x2="1" gradientTransform="matrix(43.9944,0,0,43.9944,1.99989,42.045)" gradientUnits="userSpaceOnUse">
   <stop style="stop-color:#1a1a1a" offset="0"/>
   <stop style="stop-color:#2c2c2e" offset=".11"/>
   <stop style="stop-color:#2b2b2d" offset=".29"/>
   <stop style="stop-color:#2a2b2d" offset=".51"/>
   <stop style="stop-color:#2b2b2d" offset=".75"/>
   <stop style="stop-color:#323232" offset=".9"/>
   <stop style="stop-color:#171717" offset="1"/>
  </linearGradient>
  <linearGradient id="_Linear2" x2="1" gradientTransform="matrix(.19071 -35.1277 35.1277 .19071 23.2862 37.876)" gradientUnits="userSpaceOnUse">
   <stop style="stop-color:#b6b9bf" offset="0"/>
   <stop style="stop-color:#dddfe2" offset="1"/>
  </linearGradient>
  <linearGradient id="_Linear3" x2="1" gradientTransform="matrix(1.02187e-16,-1.66884,1.66884,1.02187e-16,24.8347,43.3122)" gradientUnits="userSpaceOnUse">
   <stop style="stop-color:#a5a5a5" offset="0"/>
   <stop style="stop-color:#f5f2f5" offset="1"/>
  </linearGradient>
  <linearGradient id="_Linear4" x2="1" gradientTransform="matrix(2.04372e-16,-3.33766,3.33766,2.04372e-16,40.6886,44.314)" gradientUnits="userSpaceOnUse">
   <stop style="stop-color:#040404;stop-opacity:.45" offset="0"/>
   <stop style="stop-color:#121212;stop-opacity:.41" offset="1"/>
  </linearGradient>
 </defs>
</svg>
