/* XPM */
static char * close_active_xpm[] = {
"32 34 25 1",
" 	c None",
".	c #000000",
"+	c #2D2D2D",
"@	c #232323",
"#	c #262626",
"$	c #515151",
"%	c #8B8988",
"&	c #BBB8B6",
"*	c #8A8888",
"=	c #515050",
"-	c #918F8E",
";	c #D1CBC9",
">	c #525151",
",	c #555555",
"'	c #605F5F",
")	c #5F5E5E",
"!	c #898787",
"~	c #BAB6B5",
"{	c #626161",
"]	c #5D5D5C",
"^	c #B7B3B2",
"/	c #505050",
"(	c #908E8D",
"_	c #252525",
":	c #888786",
"................................",
"++++++++++++++++++++++++++++++++",
"@@@@@@@@@@@@@@@@@@@@@@@@@@@@@@@@",
"@@@@@@@@@@@@@@@@@@@@@@@@@@@@@@@@",
"@@@@@@@@@@@@@@@@@@@@@@@@@@@@@@@@",
"@@@@@@@@@@@@@@@@@@@@@@@@@@@@@@@@",
"@@@@@@@@@@@@@@@@@@@@@@@@@@@@@@@@",
"@@@@@@@@@@@@@@@@@@@@@@@@@@@@@@@@",
"@@@@@@@@@@@@@@@@@@@@@@@@@@@@@@@@",
"@@@@@@@@@@@@@@@@@@@@@@@@@@@@@@@@",
"@@@@@@@@@@@@@@@@@@@@@@@@@@@@@@@@",
"@@@@@@@@@@@@#$%&&*=#@@@@@@@@@@@@",
"@@@@@@@@@@@+-;;;;;;-+@@@@@@@@@@@",
"@@@@@@@@@@#-;;;;;;;;-#@@@@@@@@@@",
"@@@@@@@@@@>;;,';;',;;=@@@@@@@@@@",
"@@@@@@@@@@%;;'@))@';;!@@@@@@@@@@",
"@@@@@@@@@@~;;;{@@];;;~@@@@@@@@@@",
"@@@@@@@@@@~;;;{@@];;;^@@@@@@@@@@",
"@@@@@@@@@@%;;'@))@';;!@@@@@@@@@@",
"@@@@@@@@@@$;;,';;',;;/@@@@@@@@@@",
"@@@@@@@@@@#-;;;;;;;;(_@@@@@@@@@@",
"@@@@@@@@@@@+(;;;;;;(+@@@@@@@@@@@",
"@@@@@@@@@@@@_=!~~:/_@@@@@@@@@@@@",
"@@@@@@@@@@@@@@@@@@@@@@@@@@@@@@@@",
"@@@@@@@@@@@@@@@@@@@@@@@@@@@@@@@@",
"@@@@@@@@@@@@@@@@@@@@@@@@@@@@@@@@",
"@@@@@@@@@@@@@@@@@@@@@@@@@@@@@@@@",
"@@@@@@@@@@@@@@@@@@@@@@@@@@@@@@@@",
"@@@@@@@@@@@@@@@@@@@@@@@@@@@@@@@@",
"@@@@@@@@@@@@@@@@@@@@@@@@@@@@@@@@",
"@@@@@@@@@@@@@@@@@@@@@@@@@@@@@@@@",
"@@@@@@@@@@@@@@@@@@@@@@@@@@@@@@@@",
"@@@@@@@@@@@@@@@@@@@@@@@@@@@@@@@@",
"@@@@@@@@@@@@@@@@@@@@@@@@@@@@@@@@"};
