/* XPM */
static char * close_pressed_xpm[] = {
"32 34 24 1",
" 	c None",
".	c #000000",
"+	c #2D2D2D",
"@	c #404040",
"#	c #424242",
"$	c #686767",
"%	c #999796",
"&	c #C1BCBB",
"*	c #989695",
"=	c #494949",
"-	c #9E9C9B",
";	c #D1CBC9",
">	c #686868",
",	c #6B6B6A",
"'	c #747473",
")	c #747372",
"!	c #979595",
"~	c #BFBBBA",
"{	c #767575",
"]	c #727171",
"^	c #BEB9B8",
"/	c #676666",
"(	c #9D9B9A",
"_	c #969594",
"................................",
"++++++++++++++++++++++++++++++++",
"@@@@@@@@@@@@@@@@@@@@@@@@@@@@@@@@",
"@@@@@@@@@@@@@@@@@@@@@@@@@@@@@@@@",
"@@@@@@@@@@@@@@@@@@@@@@@@@@@@@@@@",
"@@@@@@@@@@@@@@@@@@@@@@@@@@@@@@@@",
"@@@@@@@@@@@@@@@@@@@@@@@@@@@@@@@@",
"@@@@@@@@@@@@@@@@@@@@@@@@@@@@@@@@",
"@@@@@@@@@@@@@@@@@@@@@@@@@@@@@@@@",
"@@@@@@@@@@@@@@@@@@@@@@@@@@@@@@@@",
"@@@@@@@@@@@@@@@@@@@@@@@@@@@@@@@@",
"@@@@@@@@@@@@#$%&&*$#@@@@@@@@@@@@",
"@@@@@@@@@@@=-;;;;;;-=@@@@@@@@@@@",
"@@@@@@@@@@#-;;;;;;;;-#@@@@@@@@@@",
"@@@@@@@@@@>;;,';;',;;$@@@@@@@@@@",
"@@@@@@@@@@%;;'@))@';;!@@@@@@@@@@",
"@@@@@@@@@@~;;;{@@];;;~@@@@@@@@@@",
"@@@@@@@@@@~;;;{@@];;;^@@@@@@@@@@",
"@@@@@@@@@@%;;'@))@';;!@@@@@@@@@@",
"@@@@@@@@@@$;;,';;',;;/@@@@@@@@@@",
"@@@@@@@@@@#-;;;;;;;;(#@@@@@@@@@@",
"@@@@@@@@@@@=(;;;;;;(=@@@@@@@@@@@",
"@@@@@@@@@@@@#$!~~_/#@@@@@@@@@@@@",
"@@@@@@@@@@@@@@@@@@@@@@@@@@@@@@@@",
"@@@@@@@@@@@@@@@@@@@@@@@@@@@@@@@@",
"@@@@@@@@@@@@@@@@@@@@@@@@@@@@@@@@",
"@@@@@@@@@@@@@@@@@@@@@@@@@@@@@@@@",
"@@@@@@@@@@@@@@@@@@@@@@@@@@@@@@@@",
"@@@@@@@@@@@@@@@@@@@@@@@@@@@@@@@@",
"@@@@@@@@@@@@@@@@@@@@@@@@@@@@@@@@",
"@@@@@@@@@@@@@@@@@@@@@@@@@@@@@@@@",
"@@@@@@@@@@@@@@@@@@@@@@@@@@@@@@@@",
"@@@@@@@@@@@@@@@@@@@@@@@@@@@@@@@@",
"@@@@@@@@@@@@@@@@@@@@@@@@@@@@@@@@"};
