/* XPM */
static char * hide_active_xpm[] = {
"32 34 22 1",
" 	c None",
".	c #000000",
"+	c #2D2D2D",
"@	c #232323",
"#	c #262626",
"$	c #515151",
"%	c #8B8988",
"&	c #BBB8B6",
"*	c #8A8888",
"=	c #515050",
"-	c #918F8E",
";	c #D1CBC9",
">	c #525151",
",	c #898787",
"'	c #BAB6B5",
")	c #747373",
"!	c #464545",
"~	c #B8B5B3",
"{	c #505050",
"]	c #908E8D",
"^	c #252525",
"/	c #888786",
"................................",
"++++++++++++++++++++++++++++++++",
"@@@@@@@@@@@@@@@@@@@@@@@@@@@@@@@@",
"@@@@@@@@@@@@@@@@@@@@@@@@@@@@@@@@",
"@@@@@@@@@@@@@@@@@@@@@@@@@@@@@@@@",
"@@@@@@@@@@@@@@@@@@@@@@@@@@@@@@@@",
"@@@@@@@@@@@@@@@@@@@@@@@@@@@@@@@@",
"@@@@@@@@@@@@@@@@@@@@@@@@@@@@@@@@",
"@@@@@@@@@@@@@@@@@@@@@@@@@@@@@@@@",
"@@@@@@@@@@@@@@@@@@@@@@@@@@@@@@@@",
"@@@@@@@@@@@@@@@@@@@@@@@@@@@@@@@@",
"@@@@@@@@@@@@#$%&&*=#@@@@@@@@@@@@",
"@@@@@@@@@@@+-;;;;;;-+@@@@@@@@@@@",
"@@@@@@@@@@#-;;;;;;;;-#@@@@@@@@@@",
"@@@@@@@@@@>;;;;;;;;;;=@@@@@@@@@@",
"@@@@@@@@@@%;;;;;;;;;;,@@@@@@@@@@",
"@@@@@@@@@@';)!!!!!!);~@@@@@@@@@@",
"@@@@@@@@@@';)!!!!!!);~@@@@@@@@@@",
"@@@@@@@@@@%;;;;;;;;;;,@@@@@@@@@@",
"@@@@@@@@@@$;;;;;;;;;;{@@@@@@@@@@",
"@@@@@@@@@@#-;;;;;;;;]^@@@@@@@@@@",
"@@@@@@@@@@@+];;;;;;]+@@@@@@@@@@@",
"@@@@@@@@@@@@^=,''/{^@@@@@@@@@@@@",
"@@@@@@@@@@@@@@@@@@@@@@@@@@@@@@@@",
"@@@@@@@@@@@@@@@@@@@@@@@@@@@@@@@@",
"@@@@@@@@@@@@@@@@@@@@@@@@@@@@@@@@",
"@@@@@@@@@@@@@@@@@@@@@@@@@@@@@@@@",
"@@@@@@@@@@@@@@@@@@@@@@@@@@@@@@@@",
"@@@@@@@@@@@@@@@@@@@@@@@@@@@@@@@@",
"@@@@@@@@@@@@@@@@@@@@@@@@@@@@@@@@",
"@@@@@@@@@@@@@@@@@@@@@@@@@@@@@@@@",
"@@@@@@@@@@@@@@@@@@@@@@@@@@@@@@@@",
"@@@@@@@@@@@@@@@@@@@@@@@@@@@@@@@@",
"@@@@@@@@@@@@@@@@@@@@@@@@@@@@@@@@"};
