/* XPM */
static char * maximize_pressed_xpm[] = {
"32 34 30 1",
" 	c None",
".	c #000000",
"+	c #2D2D2D",
"@	c #404040",
"#	c #424242",
"$	c #686868",
"%	c #999796",
"&	c #C1BCBB",
"*	c #686767",
"=	c #494949",
"-	c #9E9D9B",
";	c #D1CBC9",
">	c #9E9C9B",
",	c #CAC5C3",
"'	c #BBB7B6",
")	c #BAB5B5",
"!	c #484848",
"~	c #AFADAB",
"{	c #B2AFAE",
"]	c #868584",
"^	c #414141",
"/	c #989695",
"(	c #BFBBBA",
"_	c #454545",
":	c #868484",
"<	c #BEBAB9",
"[	c #878685",
"}	c #B3B0AF",
"|	c #C9C4C2",
"1	c #979595",
"................................",
"++++++++++++++++++++++++++++++++",
"@@@@@@@@@@@@@@@@@@@@@@@@@@@@@@@@",
"@@@@@@@@@@@@@@@@@@@@@@@@@@@@@@@@",
"@@@@@@@@@@@@@@@@@@@@@@@@@@@@@@@@",
"@@@@@@@@@@@@@@@@@@@@@@@@@@@@@@@@",
"@@@@@@@@@@@@@@@@@@@@@@@@@@@@@@@@",
"@@@@@@@@@@@@@@@@@@@@@@@@@@@@@@@@",
"@@@@@@@@@@@@@@@@@@@@@@@@@@@@@@@@",
"@@@@@@@@@@@@@@@@@@@@@@@@@@@@@@@@",
"@@@@@@@@@@@@@@@@@@@@@@@@@@@@@@@@",
"@@@@@@@@@@@@#$%&&%*#@@@@@@@@@@@@",
"@@@@@@@@@@@=-;;;;;;>=@@@@@@@@@@@",
"@@@@@@@@@@#-;;;;;,';>#@@@@@@@@@@",
"@@@@@@@@@@$;;;)!#@@~;*@@@@@@@@@@",
"@@@@@@@@@@%;;{;]^@@);/@@@@@@@@@@",
"@@@@@@@@@@(;;_];:^@,;<@@@@@@@@@@",
"@@@@@@@@@@(;,@#];:_;;<@@@@@@@@@@",
"@@@@@@@@@@%;)@@#[;};;/@@@@@@@@@@",
"@@@@@@@@@@*;~@@#!';;;*@@@@@@@@@@",
"@@@@@@@@@@#>;'|;;;;;>#@@@@@@@@@@",
"@@@@@@@@@@@=>;;;;;;>=@@@@@@@@@@@",
"@@@@@@@@@@@@#*/((1*#@@@@@@@@@@@@",
"@@@@@@@@@@@@@@@@@@@@@@@@@@@@@@@@",
"@@@@@@@@@@@@@@@@@@@@@@@@@@@@@@@@",
"@@@@@@@@@@@@@@@@@@@@@@@@@@@@@@@@",
"@@@@@@@@@@@@@@@@@@@@@@@@@@@@@@@@",
"@@@@@@@@@@@@@@@@@@@@@@@@@@@@@@@@",
"@@@@@@@@@@@@@@@@@@@@@@@@@@@@@@@@",
"@@@@@@@@@@@@@@@@@@@@@@@@@@@@@@@@",
"@@@@@@@@@@@@@@@@@@@@@@@@@@@@@@@@",
"@@@@@@@@@@@@@@@@@@@@@@@@@@@@@@@@",
"@@@@@@@@@@@@@@@@@@@@@@@@@@@@@@@@",
"@@@@@@@@@@@@@@@@@@@@@@@@@@@@@@@@"};
