/* XPM */
static char * maximize_inactive_xpm[] = {
"32 34 24 1",
" 	c None",
".	c #000000",
"+	c #161616",
"@	c #242424",
"#	c #393838",
"$	c #4D4C4C",
"%	c #585757",
"&	c #383838",
"*	c #282828",
"=	c #4F4E4E",
"-	c #5B5A5A",
";	c #5A5959",
">	c #575656",
",	c #565656",
"'	c #232323",
")	c #545353",
"!	c #4D4D4C",
"~	c #555454",
"{	c #464645",
"]	c #262626",
"^	c #464545",
"/	c #575757",
"(	c #464646",
"_	c #4C4C4C",
"................................",
"++++++++++++++++++++++++++++++++",
"++++++++++++++++++++++++++++++++",
"++++++++++++++++++++++++++++++++",
"++++++++++++++++++++++++++++++++",
"++++++++++++++++++++++++++++++++",
"++++++++++++++++++++++++++++++++",
"++++++++++++++++++++++++++++++++",
"++++++++++++++++++++++++++++++++",
"++++++++++++++++++++++++++++++++",
"++++++++++++++++++++++++++++++++",
"++++++++++++@#$%%$&@++++++++++++",
"+++++++++++*=------=*+++++++++++",
"++++++++++@=-----;>-=@++++++++++",
"++++++++++#---,*@'')-&++++++++++",
"++++++++++!--~-{@'',-$++++++++++",
"++++++++++%--]{-^@';-/++++++++++",
"++++++++++%-;'@{-^]--/++++++++++",
"++++++++++!-,''@(-~--$++++++++++",
"++++++++++&-)''@*>---&++++++++++",
"++++++++++@=->;-----=@++++++++++",
"+++++++++++*=------=*+++++++++++",
"++++++++++++@&$%%_&@++++++++++++",
"++++++++++++++++++++++++++++++++",
"++++++++++++++++++++++++++++++++",
"++++++++++++++++++++++++++++++++",
"++++++++++++++++++++++++++++++++",
"++++++++++++++++++++++++++++++++",
"++++++++++++++++++++++++++++++++",
"++++++++++++++++++++++++++++++++",
"++++++++++++++++++++++++++++++++",
"++++++++++++++++++++++++++++++++",
"++++++++++++++++++++++++++++++++",
"++++++++++++++++++++++++++++++++"};
