/* XPM */
static char * stick_toggled_active_xpm[] = {
"32 34 74 1",
" 	c None",
".	c #000000",
"+	c #2D2D2D",
"@	c #232323",
"#	c #5D5B5A",
"$	c #918D8C",
"%	c #AAA5A3",
"&	c #A9A4A3",
"*	c #8F8A88",
"=	c #595857",
"-	c #403F3E",
";	c #ACA7A5",
">	c #777472",
",	c #393838",
"'	c #3D3B3B",
")	c #7D7878",
"!	c #383736",
"~	c #434140",
"{	c #A7A4A2",
"]	c #2F2E2E",
"^	c #363534",
"/	c #AAA6A4",
"(	c #393737",
"_	c #ADA8A7",
":	c #2E2D2D",
"<	c #353333",
"[	c #686665",
"}	c #6F6C6B",
"|	c #676463",
"1	c #A7A2A1",
"2	c #666462",
"3	c #5C5A59",
"4	c #9D9A98",
"5	c #2F2E2D",
"6	c #686564",
"7	c #BBB6B4",
"8	c #928E8D",
"9	c #B6B1AF",
"0	c #A8A4A2",
"a	c #A7A3A1",
"b	c #B7B2B0",
"c	c #A8A3A2",
"d	c #A6A2A0",
"e	c #AEA9A7",
"f	c #A29E9C",
"g	c #2A2929",
"h	c #666463",
"i	c #323130",
"j	c #969291",
"k	c #716D6D",
"l	c #676563",
"m	c #6F6B6B",
"n	c #646261",
"o	c #242323",
"p	c #ADA9A7",
"q	c #262525",
"r	c #2C2B2A",
"s	c #ACA7A6",
"t	c #535150",
"u	c #A19D9A",
"v	c #A5A09F",
"w	c #484746",
"x	c #545251",
"y	c #666362",
"z	c #2D2C2B",
"A	c #6B6766",
"B	c #ADA8A5",
"C	c #4B4948",
"D	c #252525",
"E	c #73706F",
"F	c #B7B3B1",
"G	c #A39F9D",
"H	c #6E6B6A",
"I	c #212120",
"................................",
"++++++++++++++++++++++++++++++++",
"@@@@@@@@@@@@@@@@@@@@@@@@@@@@@@@@",
"@@@@@@@@@@@@@@@@@@@@@@@@@@@@@@@@",
"@@@@@@@@@@@@@@@@@@@@@@@@@@@@@@@@",
"@@@@@@@@@@@@@@@@@@@@@@@@@@@@@@@@",
"@@@@@@@@@@@@@@@@@@@@@@@@@@@@@@@@",
"@@@@@@@@@@@@@@@@@@@@@@@@@@@@@@@@",
"@@@@@@@@@@@@@@@@@@@@@@@@@@@@@@@@",
"@@@@@@@@@@@@@@@@@@@@@@@@@@@@@@@@",
"@@@@@@@@@@@@@#$%&*=@@@@@@@@@@@@@",
"@@@@@@@@@@@-;>,@@')&!@@@@@@@@@@@",
"@@@@@@@@@@~{]@@@@@@^/(@@@@@@@@@@",
"@@@@@@@@@@_:@@@@@@@@<&@@@@@@@@@@",
"@@@@@@@@@[}@@@|112@@@>3@@@@@@@@@",
"@@@@@@@@@45@@677772@@^8@@@@@@@@@",
"@@@@@@@@@9@@@07777a@@@;@@@@@@@@@",
"@@@@@@@@@b@@@c7777d@@@e@@@@@@@@@",
"@@@@@@@@@fg@@67777h@@ij@@@@@@@@@",
"@@@@@@@@@kh@@@laah@@@mn@@@@@@@@@",
"@@@@@@@@@opq@@@@@@@@rs@@@@@@@@@@",
"@@@@@@@@@@tuq@@@@@@gvw@@@@@@@@@@",
"@@@@@@@@@@@xpyg@@zABC@@@@@@@@@@@",
"@@@@@@@@@@@@DEvFFGHI@@@@@@@@@@@@",
"@@@@@@@@@@@@@@@@@@@@@@@@@@@@@@@@",
"@@@@@@@@@@@@@@@@@@@@@@@@@@@@@@@@",
"@@@@@@@@@@@@@@@@@@@@@@@@@@@@@@@@",
"@@@@@@@@@@@@@@@@@@@@@@@@@@@@@@@@",
"@@@@@@@@@@@@@@@@@@@@@@@@@@@@@@@@",
"@@@@@@@@@@@@@@@@@@@@@@@@@@@@@@@@",
"@@@@@@@@@@@@@@@@@@@@@@@@@@@@@@@@",
"@@@@@@@@@@@@@@@@@@@@@@@@@@@@@@@@",
"@@@@@@@@@@@@@@@@@@@@@@@@@@@@@@@@",
"@@@@@@@@@@@@@@@@@@@@@@@@@@@@@@@@"};
