/* XPM */
static char * stick_active_xpm[] = {
"32 34 54 1",
" 	c None",
".	c #000000",
"+	c #2D2D2D",
"@	c #232323",
"#	c #1B1B1B",
"$	c #666462",
"%	c #9A9695",
"&	c #B4AFAD",
"*	c #9A9693",
"=	c #1A1A1A",
"-	c #464443",
";	c #ADA8A7",
">	c #6F6C6B",
",	c #31302F",
"'	c #313030",
")	c #444342",
"!	c #A7A2A1",
"~	c #2B2B29",
"{	c #2B2B2A",
"]	c #A7A3A2",
"^	c #2C2B2A",
"/	c #2C2C2B",
"(	c #706C6C",
"_	c #716E6D",
":	c #666261",
"<	c #9C9696",
"[	c #323130",
"}	c #333232",
"|	c #B3AFAD",
"1	c #B3AEAC",
"2	c #171717",
"3	c #B2ADAB",
"4	c #9B9795",
"5	c #333231",
"6	c #343333",
"7	c #9A9694",
"8	c #666463",
"9	c #706D6C",
"0	c #726F6E",
"a	c #666362",
"b	c #1C1C1C",
"c	c #ADA9A7",
"d	c #2E2E2D",
"e	c #2F2E2E",
"f	c #ADA8A5",
"g	c #1D1C1C",
"h	c #464544",
"i	c #A8A3A3",
"j	c #454342",
"k	c #474645",
"l	c #353434",
"m	c #363534",
"n	c #73706F",
"o	c #676463",
"................................",
"++++++++++++++++++++++++++++++++",
"@@@@@@@@@@@@@@@@@@@@@@@@@@@@@@@@",
"@@@@@@@@@@@@@@@@@@@@@@@@@@@@@@@@",
"@@@@@@@@@@@@@@@@@@@@@@@@@@@@@@@@",
"@@@@@@@@@@@@@@@@@@@@@@@@@@@@@@@@",
"@@@@@@@@@@@@@@@@@@@@@@@@@@@@@@@@",
"@@@@@@@@@@@@@@@@@@@@@@@@@@@@@@@@",
"@@@@@@@@@@@@@@@@@@@@@@@@@@@@@@@@",
"@@@@@@@@@@@@@@@@@@@@@@@@@@@@@@@@",
"@@@@@@@@@@@@#$%&&*$=@@@@@@@@@@@@",
"@@@@@@@@@@@-;>,@@'>;)@@@@@@@@@@@",
"@@@@@@@@@@-!~@@@@@@{])@@@@@@@@@@",
"@@@@@@@@@#;^@@@@@@@@/;=@@@@@@@@@",
"@@@@@@@@@$(@@@@@@@@@@_:@@@@@@@@@",
"@@@@@@@@@<[@@@@@@@@@@}*@@@@@@@@@",
"@@@@@@@@@|@@@@@@@@@@@@1@@@@@@@@@",
"@@@@@@@@@1@@@@@@@@@@@23@@@@@@@@@",
"@@@@@@@@@45@@@@@@@@@@67@@@@@@@@@",
"@@@@@@@@@89@@@@@@@@@@0a@@@@@@@@@",
"@@@@@@@@@bcd@@@@@@@@efg@@@@@@@@@",
"@@@@@@@@@@hid@@@@@@eij@@@@@@@@@@",
"@@@@@@@@@@@kc0l@@mnch@@@@@@@@@@@",
"@@@@@@@@@@@@go7|17og@@@@@@@@@@@@",
"@@@@@@@@@@@@@@@@@@@@@@@@@@@@@@@@",
"@@@@@@@@@@@@@@@@@@@@@@@@@@@@@@@@",
"@@@@@@@@@@@@@@@@@@@@@@@@@@@@@@@@",
"@@@@@@@@@@@@@@@@@@@@@@@@@@@@@@@@",
"@@@@@@@@@@@@@@@@@@@@@@@@@@@@@@@@",
"@@@@@@@@@@@@@@@@@@@@@@@@@@@@@@@@",
"@@@@@@@@@@@@@@@@@@@@@@@@@@@@@@@@",
"@@@@@@@@@@@@@@@@@@@@@@@@@@@@@@@@",
"@@@@@@@@@@@@@@@@@@@@@@@@@@@@@@@@",
"@@@@@@@@@@@@@@@@@@@@@@@@@@@@@@@@"};
