/* XPM */
static char * stick_toggled_inactive_xpm[] = {
"32 34 58 1",
" 	c None",
".	c #8E8E8E",
"+	c #DFDFDF",
"@	c #DCDCDC",
"#	c #C0C1C2",
"$	c #A3A7A7",
"%	c #96999A",
"&	c #97999A",
"*	c #A6A8A8",
"=	c #C2C3C3",
"-	c #D0D0D1",
";	c #959899",
">	c #B2B5B5",
",	c #D3D4D5",
"'	c #D1D3D3",
")	c #AFB1B2",
"!	c #D4D5D5",
"~	c #CECFCF",
"{	c #989A9B",
"]	c #D9D9DA",
"^	c #D6D6D7",
"/	c #949798",
"(	c #DADBDB",
"_	c #D7D8D8",
":	c #BABCBC",
"<	c #B7B8B8",
"[	c #BBBDBD",
"}	c #C1C3C3",
"|	c #9D9FA1",
"1	c #DADADA",
"2	c #BBBCBD",
"3	c #8D9091",
"4	c #D6D7D7",
"5	c #A3A5A6",
"6	c #909293",
"7	c #8F9293",
"8	c #979A9C",
"9	c #989A9C",
"0	c #9B9D9E",
"a	c #DDDEDE",
"b	c #BCBDBE",
"c	c #D8D9D9",
"d	c #A1A4A4",
"e	c #B7B7B9",
"f	c #B8B9B9",
"g	c #BEBFC0",
"h	c #C6C8C8",
"i	c #9A9E9F",
"j	c #DDDDDD",
"k	c #999C9C",
"l	c #CDCECE",
"m	c #DEDEDE",
"n	c #BABBBC",
"o	c #959898",
"p	c #CCCDCD",
"q	c #B5B7B8",
"r	c #9A9D9E",
"s	c #B7B9BB",
"................................",
"++++++++++++++++++++++++++++++++",
"@@@@@@@@@@@@@@@@@@@@@@@@@@@@@@@@",
"@@@@@@@@@@@@@@@@@@@@@@@@@@@@@@@@",
"@@@@@@@@@@@@@@@@@@@@@@@@@@@@@@@@",
"@@@@@@@@@@@@@@@@@@@@@@@@@@@@@@@@",
"@@@@@@@@@@@@@@@@@@@@@@@@@@@@@@@@",
"@@@@@@@@@@@@@@@@@@@@@@@@@@@@@@@@",
"@@@@@@@@@@@@@@@@@@@@@@@@@@@@@@@@",
"@@@@@@@@@@@@@@@@@@@@@@@@@@@@@@@@",
"@@@@@@@@@@@@@#$%&*=@@@@@@@@@@@@@",
"@@@@@@@@@@@-;>,@@')&!@@@@@@@@@@@",
"@@@@@@@@@@~{]@@@@@@^%!@@@@@@@@@@",
"@@@@@@@@@@/(@@@@@@@@_&@@@@@@@@@@",
"@@@@@@@@@:<@@@[{{[@@@>}@@@@@@@@@",
"@@@@@@@@@|1@@23333[@@45@@@@@@@@@",
"@@@@@@@@@6@@@{3333{@@@;@@@@@@@@@",
"@@@@@@@@@7@@@833339@@@/@@@@@@@@@",
"@@@@@@@@@0a@@[3333b@@cd@@@@@@@@@",
"@@@@@@@@@eb@@@[{{b@@@fg@@@@@@@@@",
"@@@@@@@@@@/@@@@@@@@@@;@@@@@@@@@@",
"@@@@@@@@@@hi@@@@@@@jkl@@@@@@@@@@",
"@@@@@@@@@@@h/bm@@@nop@@@@@@@@@@@",
"@@@@@@@@@@@@@qk77rs@@@@@@@@@@@@@",
"@@@@@@@@@@@@@@@@@@@@@@@@@@@@@@@@",
"@@@@@@@@@@@@@@@@@@@@@@@@@@@@@@@@",
"@@@@@@@@@@@@@@@@@@@@@@@@@@@@@@@@",
"@@@@@@@@@@@@@@@@@@@@@@@@@@@@@@@@",
"@@@@@@@@@@@@@@@@@@@@@@@@@@@@@@@@",
"@@@@@@@@@@@@@@@@@@@@@@@@@@@@@@@@",
"@@@@@@@@@@@@@@@@@@@@@@@@@@@@@@@@",
"@@@@@@@@@@@@@@@@@@@@@@@@@@@@@@@@",
"@@@@@@@@@@@@@@@@@@@@@@@@@@@@@@@@",
"@@@@@@@@@@@@@@@@@@@@@@@@@@@@@@@@"};
