/* XPM */
static char * close_prelight_xpm[] = {
"32 34 25 1",
" 	c None",
".	c #8E8E8E",
"+	c #DFDFDF",
"@	c #CECECE",
"#	c #CCCCCC",
"$	c #A3A3A4",
"%	c #6E6F70",
"&	c #414546",
"*	c #6E7071",
"=	c #A3A4A4",
"-	c #C4C5C5",
";	c #686A6B",
">	c #2E3436",
",	c #A2A3A3",
"'	c #9FA0A0",
")	c #959696",
"!	c #969797",
"~	c #6F7171",
"{	c #424648",
"]	c #939495",
"^	c #989899",
"/	c #45494A",
"(	c #A4A4A5",
"_	c #696B6B",
":	c #707272",
"................................",
"++++++++++++++++++++++++++++++++",
"@@@@@@@@@@@@@@@@@@@@@@@@@@@@@@@@",
"@@@@@@@@@@@@@@@@@@@@@@@@@@@@@@@@",
"@@@@@@@@@@@@@@@@@@@@@@@@@@@@@@@@",
"@@@@@@@@@@@@@@@@@@@@@@@@@@@@@@@@",
"@@@@@@@@@@@@@@@@@@@@@@@@@@@@@@@@",
"@@@@@@@@@@@@@@@@@@@@@@@@@@@@@@@@",
"@@@@@@@@@@@@@@@@@@@@@@@@@@@@@@@@",
"@@@@@@@@@@@@@@@@@@@@@@@@@@@@@@@@",
"@@@@@@@@@@@@@@@@@@@@@@@@@@@@@@@@",
"@@@@@@@@@@@@#$%&&*=#@@@@@@@@@@@@",
"@@@@@@@@@@@-;>>>>>>;-@@@@@@@@@@@",
"@@@@@@@@@@#;>>>>>>>>;#@@@@@@@@@@",
"@@@@@@@@@@,>>')>>)'>>=@@@@@@@@@@",
"@@@@@@@@@@%>>)@!!@)>>~@@@@@@@@@@",
"@@@@@@@@@@{>>>]@@^>>>{@@@@@@@@@@",
"@@@@@@@@@@{>>>]@@^>>>/@@@@@@@@@@",
"@@@@@@@@@@%>>)@!!@)>>~@@@@@@@@@@",
"@@@@@@@@@@$>>')>>)'>>(@@@@@@@@@@",
"@@@@@@@@@@#;>>>>>>>>_#@@@@@@@@@@",
"@@@@@@@@@@@-_>>>>>>_-@@@@@@@@@@@",
"@@@@@@@@@@@@#=~{{:(#@@@@@@@@@@@@",
"@@@@@@@@@@@@@@@@@@@@@@@@@@@@@@@@",
"@@@@@@@@@@@@@@@@@@@@@@@@@@@@@@@@",
"@@@@@@@@@@@@@@@@@@@@@@@@@@@@@@@@",
"@@@@@@@@@@@@@@@@@@@@@@@@@@@@@@@@",
"@@@@@@@@@@@@@@@@@@@@@@@@@@@@@@@@",
"@@@@@@@@@@@@@@@@@@@@@@@@@@@@@@@@",
"@@@@@@@@@@@@@@@@@@@@@@@@@@@@@@@@",
"@@@@@@@@@@@@@@@@@@@@@@@@@@@@@@@@",
"@@@@@@@@@@@@@@@@@@@@@@@@@@@@@@@@",
"@@@@@@@@@@@@@@@@@@@@@@@@@@@@@@@@",
"@@@@@@@@@@@@@@@@@@@@@@@@@@@@@@@@"};
