/* XPM */
static char * hide_active_xpm[] = {
"32 34 23 1",
" 	c None",
".	c #8E8E8E",
"+	c #DFDFDF",
"@	c #DCDCDC",
"#	c #D9D9D9",
"$	c #AEAEAE",
"%	c #747677",
"&	c #444749",
"*	c #757777",
"=	c #AEAFAF",
"-	c #D2D2D2",
";	c #6E7071",
">	c #2E3436",
",	c #ADAEAE",
"'	c #767878",
")	c #45494A",
"!	c #8B8C8C",
"~	c #B9BABA",
"{	c #474A4C",
"]	c #AFAFAF",
"^	c #6F7172",
"/	c #DADADA",
"(	c #777879",
"................................",
"++++++++++++++++++++++++++++++++",
"@@@@@@@@@@@@@@@@@@@@@@@@@@@@@@@@",
"@@@@@@@@@@@@@@@@@@@@@@@@@@@@@@@@",
"@@@@@@@@@@@@@@@@@@@@@@@@@@@@@@@@",
"@@@@@@@@@@@@@@@@@@@@@@@@@@@@@@@@",
"@@@@@@@@@@@@@@@@@@@@@@@@@@@@@@@@",
"@@@@@@@@@@@@@@@@@@@@@@@@@@@@@@@@",
"@@@@@@@@@@@@@@@@@@@@@@@@@@@@@@@@",
"@@@@@@@@@@@@@@@@@@@@@@@@@@@@@@@@",
"@@@@@@@@@@@@@@@@@@@@@@@@@@@@@@@@",
"@@@@@@@@@@@@#$%&&*=#@@@@@@@@@@@@",
"@@@@@@@@@@@-;>>>>>>;-@@@@@@@@@@@",
"@@@@@@@@@@#;>>>>>>>>;#@@@@@@@@@@",
"@@@@@@@@@@,>>>>>>>>>>=@@@@@@@@@@",
"@@@@@@@@@@%>>>>>>>>>>'@@@@@@@@@@",
"@@@@@@@@@@)>!~~~~~~!>{@@@@@@@@@@",
"@@@@@@@@@@)>!~~~~~~!>{@@@@@@@@@@",
"@@@@@@@@@@%>>>>>>>>>>'@@@@@@@@@@",
"@@@@@@@@@@$>>>>>>>>>>]@@@@@@@@@@",
"@@@@@@@@@@#;>>>>>>>>^/@@@@@@@@@@",
"@@@@@@@@@@@-^>>>>>>^-@@@@@@@@@@@",
"@@@@@@@@@@@@/='))(]/@@@@@@@@@@@@",
"@@@@@@@@@@@@@@@@@@@@@@@@@@@@@@@@",
"@@@@@@@@@@@@@@@@@@@@@@@@@@@@@@@@",
"@@@@@@@@@@@@@@@@@@@@@@@@@@@@@@@@",
"@@@@@@@@@@@@@@@@@@@@@@@@@@@@@@@@",
"@@@@@@@@@@@@@@@@@@@@@@@@@@@@@@@@",
"@@@@@@@@@@@@@@@@@@@@@@@@@@@@@@@@",
"@@@@@@@@@@@@@@@@@@@@@@@@@@@@@@@@",
"@@@@@@@@@@@@@@@@@@@@@@@@@@@@@@@@",
"@@@@@@@@@@@@@@@@@@@@@@@@@@@@@@@@",
"@@@@@@@@@@@@@@@@@@@@@@@@@@@@@@@@",
"@@@@@@@@@@@@@@@@@@@@@@@@@@@@@@@@"};
