/* XPM */
static char * stick_pressed_xpm[] = {
"32 34 35 1",
" 	c None",
".	c #000000",
"+	c #2D2D2D",
"@	c #404040",
"#	c #666462",
"$	c #9A9695",
"%	c #B4AFAD",
"&	c #9A9693",
"*	c #464443",
"=	c #ADA8A7",
"-	c #6F6C6B",
";	c #444342",
">	c #A7A2A1",
",	c #A7A3A2",
"'	c #706C6C",
")	c #716E6D",
"!	c #666261",
"~	c #9C9696",
"{	c #B3AFAD",
"]	c #B3AEAC",
"^	c #B2ADAB",
"/	c #9B9795",
"(	c #9A9694",
"_	c #666463",
":	c #706D6C",
"<	c #726F6E",
"[	c #666362",
"}	c #ADA9A7",
"|	c #ADA8A5",
"1	c #464544",
"2	c #A8A3A3",
"3	c #454342",
"4	c #474645",
"5	c #73706F",
"6	c #676463",
"................................",
"++++++++++++++++++++++++++++++++",
"@@@@@@@@@@@@@@@@@@@@@@@@@@@@@@@@",
"@@@@@@@@@@@@@@@@@@@@@@@@@@@@@@@@",
"@@@@@@@@@@@@@@@@@@@@@@@@@@@@@@@@",
"@@@@@@@@@@@@@@@@@@@@@@@@@@@@@@@@",
"@@@@@@@@@@@@@@@@@@@@@@@@@@@@@@@@",
"@@@@@@@@@@@@@@@@@@@@@@@@@@@@@@@@",
"@@@@@@@@@@@@@@@@@@@@@@@@@@@@@@@@",
"@@@@@@@@@@@@@@@@@@@@@@@@@@@@@@@@",
"@@@@@@@@@@@@@#$%%&#@@@@@@@@@@@@@",
"@@@@@@@@@@@*=-@@@@-=;@@@@@@@@@@@",
"@@@@@@@@@@*>@@@@@@@@,;@@@@@@@@@@",
"@@@@@@@@@@=@@@@@@@@@@=@@@@@@@@@@",
"@@@@@@@@@#'@@@@@@@@@@)!@@@@@@@@@",
"@@@@@@@@@~@@@@@@@@@@@@&@@@@@@@@@",
"@@@@@@@@@{@@@@@@@@@@@@]@@@@@@@@@",
"@@@@@@@@@]@@@@@@@@@@@@^@@@@@@@@@",
"@@@@@@@@@/@@@@@@@@@@@@(@@@@@@@@@",
"@@@@@@@@@_:@@@@@@@@@@<[@@@@@@@@@",
"@@@@@@@@@@}@@@@@@@@@@|@@@@@@@@@@",
"@@@@@@@@@@12@@@@@@@@23@@@@@@@@@@",
"@@@@@@@@@@@4}<@@@@5}1@@@@@@@@@@@",
"@@@@@@@@@@@@@6({](6@@@@@@@@@@@@@",
"@@@@@@@@@@@@@@@@@@@@@@@@@@@@@@@@",
"@@@@@@@@@@@@@@@@@@@@@@@@@@@@@@@@",
"@@@@@@@@@@@@@@@@@@@@@@@@@@@@@@@@",
"@@@@@@@@@@@@@@@@@@@@@@@@@@@@@@@@",
"@@@@@@@@@@@@@@@@@@@@@@@@@@@@@@@@",
"@@@@@@@@@@@@@@@@@@@@@@@@@@@@@@@@",
"@@@@@@@@@@@@@@@@@@@@@@@@@@@@@@@@",
"@@@@@@@@@@@@@@@@@@@@@@@@@@@@@@@@",
"@@@@@@@@@@@@@@@@@@@@@@@@@@@@@@@@",
"@@@@@@@@@@@@@@@@@@@@@@@@@@@@@@@@"};
