/* XPM */
static char * stick_toggled_pressed_xpm[] = {
"32 34 57 1",
" 	c None",
".	c #000000",
"+	c #2D2D2D",
"@	c #404040",
"#	c #5D5B5A",
"$	c #918D8C",
"%	c #AAA5A3",
"&	c #A9A4A3",
"*	c #8F8A88",
"=	c #595857",
"-	c #403F3E",
";	c #ACA7A5",
">	c #777472",
",	c #7D7878",
"'	c #434140",
")	c #A7A4A2",
"!	c #AAA6A4",
"~	c #ADA8A7",
"{	c #686665",
"]	c #6F6C6B",
"^	c #676463",
"/	c #A7A2A1",
"(	c #666462",
"_	c #5C5A59",
":	c #9D9A98",
"<	c #686564",
"[	c #BBB6B4",
"}	c #928E8D",
"|	c #B6B1AF",
"1	c #A8A4A2",
"2	c #A7A3A1",
"3	c #B7B2B0",
"4	c #A8A3A2",
"5	c #A6A2A0",
"6	c #AEA9A7",
"7	c #A29E9C",
"8	c #666463",
"9	c #969291",
"0	c #716D6D",
"a	c #676563",
"b	c #6F6B6B",
"c	c #646261",
"d	c #ADA9A7",
"e	c #ACA7A6",
"f	c #535150",
"g	c #A19D9A",
"h	c #A5A09F",
"i	c #484746",
"j	c #545251",
"k	c #666362",
"l	c #6B6766",
"m	c #ADA8A5",
"n	c #4B4948",
"o	c #73706F",
"p	c #B7B3B1",
"q	c #A39F9D",
"r	c #6E6B6A",
"................................",
"++++++++++++++++++++++++++++++++",
"@@@@@@@@@@@@@@@@@@@@@@@@@@@@@@@@",
"@@@@@@@@@@@@@@@@@@@@@@@@@@@@@@@@",
"@@@@@@@@@@@@@@@@@@@@@@@@@@@@@@@@",
"@@@@@@@@@@@@@@@@@@@@@@@@@@@@@@@@",
"@@@@@@@@@@@@@@@@@@@@@@@@@@@@@@@@",
"@@@@@@@@@@@@@@@@@@@@@@@@@@@@@@@@",
"@@@@@@@@@@@@@@@@@@@@@@@@@@@@@@@@",
"@@@@@@@@@@@@@@@@@@@@@@@@@@@@@@@@",
"@@@@@@@@@@@@@#$%&*=@@@@@@@@@@@@@",
"@@@@@@@@@@@-;>@@@@,&@@@@@@@@@@@@",
"@@@@@@@@@@')@@@@@@@@!@@@@@@@@@@@",
"@@@@@@@@@@~@@@@@@@@@@&@@@@@@@@@@",
"@@@@@@@@@{]@@@^//(@@@>_@@@@@@@@@",
"@@@@@@@@@:@@@<[[[[(@@@}@@@@@@@@@",
"@@@@@@@@@|@@@1[[[[2@@@;@@@@@@@@@",
"@@@@@@@@@3@@@4[[[[5@@@6@@@@@@@@@",
"@@@@@@@@@7@@@<[[[[8@@@9@@@@@@@@@",
"@@@@@@@@@08@@@a228@@@bc@@@@@@@@@",
"@@@@@@@@@@d@@@@@@@@@@e@@@@@@@@@@",
"@@@@@@@@@@fg@@@@@@@@hi@@@@@@@@@@",
"@@@@@@@@@@@jdk@@@@lmn@@@@@@@@@@@",
"@@@@@@@@@@@@@ohppqr@@@@@@@@@@@@@",
"@@@@@@@@@@@@@@@@@@@@@@@@@@@@@@@@",
"@@@@@@@@@@@@@@@@@@@@@@@@@@@@@@@@",
"@@@@@@@@@@@@@@@@@@@@@@@@@@@@@@@@",
"@@@@@@@@@@@@@@@@@@@@@@@@@@@@@@@@",
"@@@@@@@@@@@@@@@@@@@@@@@@@@@@@@@@",
"@@@@@@@@@@@@@@@@@@@@@@@@@@@@@@@@",
"@@@@@@@@@@@@@@@@@@@@@@@@@@@@@@@@",
"@@@@@@@@@@@@@@@@@@@@@@@@@@@@@@@@",
"@@@@@@@@@@@@@@@@@@@@@@@@@@@@@@@@",
"@@@@@@@@@@@@@@@@@@@@@@@@@@@@@@@@"};
