<?xml version="1.0" encoding="UTF-8" standalone="no"?>
<svg
   xmlns:dc="http://purl.org/dc/elements/1.1/"
   xmlns:cc="http://creativecommons.org/ns#"
   xmlns:rdf="http://www.w3.org/1999/02/22-rdf-syntax-ns#"
   xmlns:svg="http://www.w3.org/2000/svg"
   xmlns="http://www.w3.org/2000/svg"
   xmlns:sodipodi="http://sodipodi.sourceforge.net/DTD/sodipodi-0.dtd"
   xmlns:inkscape="http://www.inkscape.org/namespaces/inkscape"
   viewBox="0 0 36 36"
   version="1.1"
   id="svg4"
   sodipodi:docname="winmax:backdrop:dm@2.svg"
   inkscape:version="0.92.2 2405546, 2018-03-11"
   width="36"
   height="36">
  <metadata
     id="metadata10">
    <rdf:RDF>
      <cc:Work
         rdf:about="">
        <dc:format>image/svg+xml</dc:format>
        <dc:type
           rdf:resource="http://purl.org/dc/dcmitype/StillImage" />
        <dc:title />
      </cc:Work>
    </rdf:RDF>
  </metadata>
  <defs
     id="defs8" />
  <sodipodi:namedview
     pagecolor="#ffffff"
     bordercolor="#666666"
     borderopacity="1"
     objecttolerance="10"
     gridtolerance="10"
     guidetolerance="10"
     inkscape:pageopacity="0"
     inkscape:pageshadow="2"
     inkscape:window-width="1366"
     inkscape:window-height="714"
     id="namedview6"
     showgrid="false"
     inkscape:zoom="5.2149125"
     inkscape:cx="-73.064754"
     inkscape:cy="12.474064"
     inkscape:window-x="0"
     inkscape:window-y="26"
     inkscape:window-maximized="1"
     inkscape:current-layer="svg4" />
  <path
     d="M 18,2 A 16.000001,16.000001 0 0 0 2,18 16.000001,16.000001 0 0 0 18,34 16.000001,16.000001 0 0 0 34,18 16.000001,16.000001 0 0 0 18,2 Z m 7.443552,7.766131 c 0.533968,-0.02939 0.9414,0.377322 0.911288,0.911288 l -0.495968,9.536288 c -0.0288,0.532664 -0.483421,0.99613 -1.016128,1.024197 v -0.008 c -0.256,0.02053 -0.512827,-0.05291 -0.697584,-0.237893 L 15.125,11.955723 c -0.180901,-0.181147 -0.261501,-0.425344 -0.241933,-0.677419 v -0.02027 c 0.02754,-0.533912 0.48216,-0.989325 1.016128,-1.016115 l 9.5,-0.459677 0.04437,-0.01627 z m -14.286294,5.004032 v 0.008 c 0.256003,-0.02053 0.512822,0.05288 0.69758,0.237893 l 9.020163,9.036296 c 0.180902,0.181147 0.261542,0.425341 0.241934,0.677416 l 0.0039,0.016 c -0.02755,0.533925 -0.486196,0.989339 -1.02016,1.016128 l -9.495967,0.463709 -0.04838,0.008 c -0.533956,0.02945 -0.9413895,-0.377288 -0.9112771,-0.911253 l 0.4960571,-9.536291 c 0.0288,-0.532666 0.48342,-0.988058 1.016128,-1.016128 z"
     id="path2"
     style="fill:#ffffff;fill-opacity:1;stroke-width:2.66666675;opacity:0.5"
     inkscape:connector-curvature="0" />
</svg>
