<?xml version="1.0" encoding="UTF-8" standalone="no"?>
<svg
   xmlns:dc="http://purl.org/dc/elements/1.1/"
   xmlns:cc="http://creativecommons.org/ns#"
   xmlns:rdf="http://www.w3.org/1999/02/22-rdf-syntax-ns#"
   xmlns:svg="http://www.w3.org/2000/svg"
   xmlns="http://www.w3.org/2000/svg"
   xmlns:sodipodi="http://sodipodi.sourceforge.net/DTD/sodipodi-0.dtd"
   xmlns:inkscape="http://www.inkscape.org/namespaces/inkscape"
   viewBox="0 0 16 16"
   version="1.1"
   id="svg4"
   sodipodi:docname="winclose:active:dm.svg"
   inkscape:version="0.92.2 2405546, 2018-03-11">
  <metadata
     id="metadata10">
    <rdf:RDF>
      <cc:Work
         rdf:about="">
        <dc:format>image/svg+xml</dc:format>
        <dc:type
           rdf:resource="http://purl.org/dc/dcmitype/StillImage" />
        <dc:title></dc:title>
      </cc:Work>
    </rdf:RDF>
  </metadata>
  <defs
     id="defs8" />
  <sodipodi:namedview
     pagecolor="#ffffff"
     bordercolor="#666666"
     borderopacity="1"
     objecttolerance="10"
     gridtolerance="10"
     guidetolerance="10"
     inkscape:pageopacity="0"
     inkscape:pageshadow="2"
     inkscape:window-width="1366"
     inkscape:window-height="695"
     id="namedview6"
     showgrid="false"
     inkscape:zoom="14.75"
     inkscape:cx="-4.9830508"
     inkscape:cy="8"
     inkscape:window-x="0"
     inkscape:window-y="0"
     inkscape:window-maximized="1"
     inkscape:current-layer="svg4" />
  <path
     d="m8 2a5.9999998 5.9999998 0 0 0 -6 6 5.9999998 5.9999998 0 0 0 6 6 5.9999998 5.9999998 0 0 0 6-6 5.9999998 5.9999998 0 0 0 -6-6zm-2.0428428 3c .6964152.6577902 1.3622509 1.3476782 2.0428428 2.0216734.680586-.6740297 1.346434-1.3638212 2.042843-2.0216734l.957157.9571572c-.657817.6964424-1.347665 1.3622373-2.0216734 2.0428428.6740284.680586 1.3638214 1.346434 2.0216734 2.042843l-.957157.957157c-.696444-.657818-1.3622367-1.347665-2.042843-2.021673-.680585.674028-1.3464338 1.363821-2.0428428 2.021673l-.9571572-.957157c.6578179-.696444 1.3476646-1.362237 2.0216734-2.042843-.6740293-.6805851-1.3638216-1.346434-2.0216734-2.0428428z"
     fill="#bebebe"
     id="path2"
     style="fill:#fff6f6;fill-opacity:1" />
</svg>
