/* XPM */
static char * close_inactive_xpm[] = {
"32 34 19 1",
" 	c None",
".	c #000000",
"+	c #161616",
"@	c #242424",
"#	c #383838",
"$	c #4D4C4C",
"%	c #585757",
"&	c #282828",
"*	c #4F4E4E",
"=	c #5B5A5A",
"-	c #393838",
";	c #3A3A3A",
">	c #3E3E3E",
",	c #232323",
"'	c #4C4C4C",
")	c #3F3F3F",
"!	c #3D3D3D",
"~	c #575756",
"{	c #4E4E4E",
"................................",
"++++++++++++++++++++++++++++++++",
"++++++++++++++++++++++++++++++++",
"++++++++++++++++++++++++++++++++",
"++++++++++++++++++++++++++++++++",
"++++++++++++++++++++++++++++++++",
"++++++++++++++++++++++++++++++++",
"++++++++++++++++++++++++++++++++",
"++++++++++++++++++++++++++++++++",
"++++++++++++++++++++++++++++++++",
"++++++++++++++++++++++++++++++++",
"++++++++++++@#$%%$#@++++++++++++",
"+++++++++++&*======*&+++++++++++",
"++++++++++@*========*@++++++++++",
"++++++++++-==;>==>;==#++++++++++",
"++++++++++$==>,>>,>=='++++++++++",
"++++++++++%===),,!===%++++++++++",
"++++++++++%===),,!===~++++++++++",
"++++++++++$==>,>>,>=='++++++++++",
"++++++++++#==;>==>;==#++++++++++",
"++++++++++@*========{@++++++++++",
"+++++++++++&{======{&+++++++++++",
"++++++++++++@#'%%'#@++++++++++++",
"++++++++++++++++++++++++++++++++",
"++++++++++++++++++++++++++++++++",
"++++++++++++++++++++++++++++++++",
"++++++++++++++++++++++++++++++++",
"++++++++++++++++++++++++++++++++",
"++++++++++++++++++++++++++++++++",
"++++++++++++++++++++++++++++++++",
"++++++++++++++++++++++++++++++++",
"++++++++++++++++++++++++++++++++",
"++++++++++++++++++++++++++++++++",
"++++++++++++++++++++++++++++++++"};
