/* XPM */
static char * hide_pressed_xpm[] = {
"32 34 21 1",
" 	c None",
".	c #000000",
"+	c #2D2D2D",
"@	c #404040",
"#	c #424242",
"$	c #686767",
"%	c #999796",
"&	c #C1BCBB",
"*	c #989695",
"=	c #494949",
"-	c #9E9C9B",
";	c #D1CBC9",
">	c #686868",
",	c #979595",
"'	c #BFBBBA",
")	c #868484",
"!	c #5E5E5D",
"~	c #BEBAB9",
"{	c #676666",
"]	c #9D9B9A",
"^	c #969594",
"................................",
"++++++++++++++++++++++++++++++++",
"@@@@@@@@@@@@@@@@@@@@@@@@@@@@@@@@",
"@@@@@@@@@@@@@@@@@@@@@@@@@@@@@@@@",
"@@@@@@@@@@@@@@@@@@@@@@@@@@@@@@@@",
"@@@@@@@@@@@@@@@@@@@@@@@@@@@@@@@@",
"@@@@@@@@@@@@@@@@@@@@@@@@@@@@@@@@",
"@@@@@@@@@@@@@@@@@@@@@@@@@@@@@@@@",
"@@@@@@@@@@@@@@@@@@@@@@@@@@@@@@@@",
"@@@@@@@@@@@@@@@@@@@@@@@@@@@@@@@@",
"@@@@@@@@@@@@@@@@@@@@@@@@@@@@@@@@",
"@@@@@@@@@@@@#$%&&*$#@@@@@@@@@@@@",
"@@@@@@@@@@@=-;;;;;;-=@@@@@@@@@@@",
"@@@@@@@@@@#-;;;;;;;;-#@@@@@@@@@@",
"@@@@@@@@@@>;;;;;;;;;;$@@@@@@@@@@",
"@@@@@@@@@@%;;;;;;;;;;,@@@@@@@@@@",
"@@@@@@@@@@';)!!!!!!);~@@@@@@@@@@",
"@@@@@@@@@@';)!!!!!!);~@@@@@@@@@@",
"@@@@@@@@@@%;;;;;;;;;;,@@@@@@@@@@",
"@@@@@@@@@@$;;;;;;;;;;{@@@@@@@@@@",
"@@@@@@@@@@#-;;;;;;;;]#@@@@@@@@@@",
"@@@@@@@@@@@=];;;;;;]=@@@@@@@@@@@",
"@@@@@@@@@@@@#$,''^{#@@@@@@@@@@@@",
"@@@@@@@@@@@@@@@@@@@@@@@@@@@@@@@@",
"@@@@@@@@@@@@@@@@@@@@@@@@@@@@@@@@",
"@@@@@@@@@@@@@@@@@@@@@@@@@@@@@@@@",
"@@@@@@@@@@@@@@@@@@@@@@@@@@@@@@@@",
"@@@@@@@@@@@@@@@@@@@@@@@@@@@@@@@@",
"@@@@@@@@@@@@@@@@@@@@@@@@@@@@@@@@",
"@@@@@@@@@@@@@@@@@@@@@@@@@@@@@@@@",
"@@@@@@@@@@@@@@@@@@@@@@@@@@@@@@@@",
"@@@@@@@@@@@@@@@@@@@@@@@@@@@@@@@@",
"@@@@@@@@@@@@@@@@@@@@@@@@@@@@@@@@",
"@@@@@@@@@@@@@@@@@@@@@@@@@@@@@@@@"};
