/* XPM */
static char * hide_inactive_xpm[] = {
"32 34 16 1",
" 	c None",
".	c #000000",
"+	c #161616",
"@	c #242424",
"#	c #383838",
"$	c #4D4C4C",
"%	c #585757",
"&	c #282828",
"*	c #4F4E4E",
"=	c #5B5A5A",
"-	c #393838",
";	c #4C4C4C",
">	c #464545",
",	c #333333",
"'	c #575757",
")	c #4E4E4E",
"................................",
"++++++++++++++++++++++++++++++++",
"++++++++++++++++++++++++++++++++",
"++++++++++++++++++++++++++++++++",
"++++++++++++++++++++++++++++++++",
"++++++++++++++++++++++++++++++++",
"++++++++++++++++++++++++++++++++",
"++++++++++++++++++++++++++++++++",
"++++++++++++++++++++++++++++++++",
"++++++++++++++++++++++++++++++++",
"++++++++++++++++++++++++++++++++",
"++++++++++++@#$%%$#@++++++++++++",
"+++++++++++&*======*&+++++++++++",
"++++++++++@*========*@++++++++++",
"++++++++++-==========#++++++++++",
"++++++++++$==========;++++++++++",
"++++++++++%=>,,,,,,>='++++++++++",
"++++++++++%=>,,,,,,>='++++++++++",
"++++++++++$==========;++++++++++",
"++++++++++#==========#++++++++++",
"++++++++++@*========)@++++++++++",
"+++++++++++&)======)&+++++++++++",
"++++++++++++@#;%%;#@++++++++++++",
"++++++++++++++++++++++++++++++++",
"++++++++++++++++++++++++++++++++",
"++++++++++++++++++++++++++++++++",
"++++++++++++++++++++++++++++++++",
"++++++++++++++++++++++++++++++++",
"++++++++++++++++++++++++++++++++",
"++++++++++++++++++++++++++++++++",
"++++++++++++++++++++++++++++++++",
"++++++++++++++++++++++++++++++++",
"++++++++++++++++++++++++++++++++",
"++++++++++++++++++++++++++++++++"};
