/* XPM */
static char * maximize_active_xpm[] = {
"32 34 32 1",
" 	c None",
".	c #000000",
"+	c #2D2D2D",
"@	c #232323",
"#	c #262626",
"$	c #525151",
"%	c #8B8988",
"&	c #BBB8B6",
"*	c #515151",
"=	c #91908F",
"-	c #D1CBC9",
";	c #918F8E",
">	c #C8C3C1",
",	c #B4B1AF",
"'	c #B3AFAE",
")	c #2C2C2C",
"!	c #A6A4A2",
"~	c #515050",
"{	c #8B8A89",
"]	c #A9A7A6",
"^	c #757473",
"/	c #242424",
"(	c #8A8888",
"_	c #BAB6B5",
":	c #292929",
"<	c #747373",
"[	c #B8B5B3",
"}	c #252525",
"|	c #767574",
"1	c #ABA8A7",
"2	c #C6C1C0",
"3	c #898787",
"................................",
"++++++++++++++++++++++++++++++++",
"@@@@@@@@@@@@@@@@@@@@@@@@@@@@@@@@",
"@@@@@@@@@@@@@@@@@@@@@@@@@@@@@@@@",
"@@@@@@@@@@@@@@@@@@@@@@@@@@@@@@@@",
"@@@@@@@@@@@@@@@@@@@@@@@@@@@@@@@@",
"@@@@@@@@@@@@@@@@@@@@@@@@@@@@@@@@",
"@@@@@@@@@@@@@@@@@@@@@@@@@@@@@@@@",
"@@@@@@@@@@@@@@@@@@@@@@@@@@@@@@@@",
"@@@@@@@@@@@@@@@@@@@@@@@@@@@@@@@@",
"@@@@@@@@@@@@@@@@@@@@@@@@@@@@@@@@",
"@@@@@@@@@@@@#$%&&%*#@@@@@@@@@@@@",
"@@@@@@@@@@@+=------;+@@@@@@@@@@@",
"@@@@@@@@@@#=----->,-;#@@@@@@@@@@",
"@@@@@@@@@@$---')#@@!-~@@@@@@@@@@",
"@@@@@@@@@@{--]-^/@@'-(@@@@@@@@@@",
"@@@@@@@@@@_--:^-</@>-[@@@@@@@@@@",
"@@@@@@@@@@_->@}^-<:--[@@@@@@@@@@",
"@@@@@@@@@@{-'@@}|-1--(@@@@@@@@@@",
"@@@@@@@@@@*-!@@}+,---~@@@@@@@@@@",
"@@@@@@@@@@#;-,2-----;}@@@@@@@@@@",
"@@@@@@@@@@@+;------;+@@@@@@@@@@@",
"@@@@@@@@@@@@}~(__3~}@@@@@@@@@@@@",
"@@@@@@@@@@@@@@@@@@@@@@@@@@@@@@@@",
"@@@@@@@@@@@@@@@@@@@@@@@@@@@@@@@@",
"@@@@@@@@@@@@@@@@@@@@@@@@@@@@@@@@",
"@@@@@@@@@@@@@@@@@@@@@@@@@@@@@@@@",
"@@@@@@@@@@@@@@@@@@@@@@@@@@@@@@@@",
"@@@@@@@@@@@@@@@@@@@@@@@@@@@@@@@@",
"@@@@@@@@@@@@@@@@@@@@@@@@@@@@@@@@",
"@@@@@@@@@@@@@@@@@@@@@@@@@@@@@@@@",
"@@@@@@@@@@@@@@@@@@@@@@@@@@@@@@@@",
"@@@@@@@@@@@@@@@@@@@@@@@@@@@@@@@@",
"@@@@@@@@@@@@@@@@@@@@@@@@@@@@@@@@"};
