/* XPM */
static char * maximize_prelight_xpm[] = {
"32 34 32 1",
" 	c None",
".	c #000000",
"+	c #2D2D2D",
"@	c #313131",
"#	c #333333",
"$	c #5D5C5C",
"%	c #91908F",
"&	c #BEBAB9",
"*	c #5C5C5B",
"=	c #3B3A3A",
"-	c #989695",
";	c #D1CBC9",
">	c #979594",
",	c #C9C4C2",
"'	c #B7B4B2",
")	c #B6B2B1",
"!	c #3A3A3A",
"~	c #AAA8A7",
"{	c #5C5B5B",
"]	c #92908F",
"^	c #AEABAA",
"/	c #7D7C7C",
"(	c #323232",
"_	c #918F8E",
":	c #BDB9B7",
"<	c #363636",
"[	c #7D7B7B",
"}	c #BBB7B6",
"|	c #7E7D7D",
"1	c #AFACAB",
"2	c #C7C3C1",
"3	c #908E8E",
"................................",
"++++++++++++++++++++++++++++++++",
"@@@@@@@@@@@@@@@@@@@@@@@@@@@@@@@@",
"@@@@@@@@@@@@@@@@@@@@@@@@@@@@@@@@",
"@@@@@@@@@@@@@@@@@@@@@@@@@@@@@@@@",
"@@@@@@@@@@@@@@@@@@@@@@@@@@@@@@@@",
"@@@@@@@@@@@@@@@@@@@@@@@@@@@@@@@@",
"@@@@@@@@@@@@@@@@@@@@@@@@@@@@@@@@",
"@@@@@@@@@@@@@@@@@@@@@@@@@@@@@@@@",
"@@@@@@@@@@@@@@@@@@@@@@@@@@@@@@@@",
"@@@@@@@@@@@@@@@@@@@@@@@@@@@@@@@@",
"@@@@@@@@@@@@#$%&&%*#@@@@@@@@@@@@",
"@@@@@@@@@@@=-;;;;;;>=@@@@@@@@@@@",
"@@@@@@@@@@#-;;;;;,';>#@@@@@@@@@@",
"@@@@@@@@@@$;;;)!#@@~;{@@@@@@@@@@",
"@@@@@@@@@@];;^;/(@@);_@@@@@@@@@@",
"@@@@@@@@@@:;;</;[(@,;}@@@@@@@@@@",
"@@@@@@@@@@:;,@#/;[<;;}@@@@@@@@@@",
"@@@@@@@@@@];)@@#|;1;;_@@@@@@@@@@",
"@@@@@@@@@@*;~@@#!';;;{@@@@@@@@@@",
"@@@@@@@@@@#>;'2;;;;;>#@@@@@@@@@@",
"@@@@@@@@@@@=>;;;;;;>=@@@@@@@@@@@",
"@@@@@@@@@@@@#{_::3{#@@@@@@@@@@@@",
"@@@@@@@@@@@@@@@@@@@@@@@@@@@@@@@@",
"@@@@@@@@@@@@@@@@@@@@@@@@@@@@@@@@",
"@@@@@@@@@@@@@@@@@@@@@@@@@@@@@@@@",
"@@@@@@@@@@@@@@@@@@@@@@@@@@@@@@@@",
"@@@@@@@@@@@@@@@@@@@@@@@@@@@@@@@@",
"@@@@@@@@@@@@@@@@@@@@@@@@@@@@@@@@",
"@@@@@@@@@@@@@@@@@@@@@@@@@@@@@@@@",
"@@@@@@@@@@@@@@@@@@@@@@@@@@@@@@@@",
"@@@@@@@@@@@@@@@@@@@@@@@@@@@@@@@@",
"@@@@@@@@@@@@@@@@@@@@@@@@@@@@@@@@",
"@@@@@@@@@@@@@@@@@@@@@@@@@@@@@@@@"};
