/* XPM */
static char * stick_prelight_xpm[] = {
"32 34 47 1",
" 	c None",
".	c #000000",
"+	c #2D2D2D",
"@	c #313131",
"#	c #666462",
"$	c #9A9695",
"%	c #B4AFAD",
"&	c #9A9693",
"*	c #464443",
"=	c #ADA8A7",
"-	c #6F6C6B",
";	c #31302F",
">	c #313030",
",	c #444342",
"'	c #A7A2A1",
")	c #A7A3A2",
"!	c #2C2B2A",
"~	c #2C2C2B",
"{	c #706C6C",
"]	c #716E6D",
"^	c #666261",
"/	c #9C9696",
"(	c #323130",
"_	c #333232",
":	c #B3AFAD",
"<	c #B3AEAC",
"[	c #B2ADAB",
"}	c #9B9795",
"|	c #333231",
"1	c #343333",
"2	c #9A9694",
"3	c #666463",
"4	c #706D6C",
"5	c #726F6E",
"6	c #666362",
"7	c #ADA9A7",
"8	c #2E2E2D",
"9	c #2F2E2E",
"0	c #ADA8A5",
"a	c #464544",
"b	c #A8A3A3",
"c	c #454342",
"d	c #474645",
"e	c #353434",
"f	c #363534",
"g	c #73706F",
"h	c #676463",
"................................",
"++++++++++++++++++++++++++++++++",
"@@@@@@@@@@@@@@@@@@@@@@@@@@@@@@@@",
"@@@@@@@@@@@@@@@@@@@@@@@@@@@@@@@@",
"@@@@@@@@@@@@@@@@@@@@@@@@@@@@@@@@",
"@@@@@@@@@@@@@@@@@@@@@@@@@@@@@@@@",
"@@@@@@@@@@@@@@@@@@@@@@@@@@@@@@@@",
"@@@@@@@@@@@@@@@@@@@@@@@@@@@@@@@@",
"@@@@@@@@@@@@@@@@@@@@@@@@@@@@@@@@",
"@@@@@@@@@@@@@@@@@@@@@@@@@@@@@@@@",
"@@@@@@@@@@@@@#$%%&#@@@@@@@@@@@@@",
"@@@@@@@@@@@*=-;@@>-=,@@@@@@@@@@@",
"@@@@@@@@@@*'@@@@@@@@),@@@@@@@@@@",
"@@@@@@@@@@=!@@@@@@@@~=@@@@@@@@@@",
"@@@@@@@@@#{@@@@@@@@@@]^@@@@@@@@@",
"@@@@@@@@@/(@@@@@@@@@@_&@@@@@@@@@",
"@@@@@@@@@:@@@@@@@@@@@@<@@@@@@@@@",
"@@@@@@@@@<@@@@@@@@@@@@[@@@@@@@@@",
"@@@@@@@@@}|@@@@@@@@@@12@@@@@@@@@",
"@@@@@@@@@34@@@@@@@@@@56@@@@@@@@@",
"@@@@@@@@@@78@@@@@@@@90@@@@@@@@@@",
"@@@@@@@@@@ab8@@@@@@9bc@@@@@@@@@@",
"@@@@@@@@@@@d75e@@fg7a@@@@@@@@@@@",
"@@@@@@@@@@@@@h2:<2h@@@@@@@@@@@@@",
"@@@@@@@@@@@@@@@@@@@@@@@@@@@@@@@@",
"@@@@@@@@@@@@@@@@@@@@@@@@@@@@@@@@",
"@@@@@@@@@@@@@@@@@@@@@@@@@@@@@@@@",
"@@@@@@@@@@@@@@@@@@@@@@@@@@@@@@@@",
"@@@@@@@@@@@@@@@@@@@@@@@@@@@@@@@@",
"@@@@@@@@@@@@@@@@@@@@@@@@@@@@@@@@",
"@@@@@@@@@@@@@@@@@@@@@@@@@@@@@@@@",
"@@@@@@@@@@@@@@@@@@@@@@@@@@@@@@@@",
"@@@@@@@@@@@@@@@@@@@@@@@@@@@@@@@@",
"@@@@@@@@@@@@@@@@@@@@@@@@@@@@@@@@"};
