/* XPM */
static char * top_right_active_xpm[] = {
"5 34 4 1",
" 	c None",
".	c #000000",
"+	c #2D2D2D",
"@	c #232323",
"...  ",
"+++. ",
"@@@@.",
"@@@@.",
"@@@@.",
"@@@@.",
"@@@@.",
"@@@@.",
"@@@@.",
"@@@@.",
"@@@@.",
"@@@@.",
"@@@@.",
"@@@@.",
"@@@@.",
"@@@@.",
"@@@@.",
"@@@@.",
"@@@@.",
"@@@@.",
"@@@@.",
"@@@@.",
"@@@@.",
"@@@@.",
"@@@@.",
"@@@@.",
"@@@@.",
"@@@@.",
"@@@@.",
"@@@@.",
"@@@@.",
"@@@@.",
"@@@@.",
"@@@@."};
