<?xml version="1.0" encoding="UTF-8" standalone="no"?>
<svg
   xmlns:dc="http://purl.org/dc/elements/1.1/"
   xmlns:cc="http://creativecommons.org/ns#"
   xmlns:rdf="http://www.w3.org/1999/02/22-rdf-syntax-ns#"
   xmlns:svg="http://www.w3.org/2000/svg"
   xmlns="http://www.w3.org/2000/svg"
   xmlns:sodipodi="http://sodipodi.sourceforge.net/DTD/sodipodi-0.dtd"
   xmlns:inkscape="http://www.inkscape.org/namespaces/inkscape"
   viewBox="0 0 16 16"
   version="1.1"
   id="svg4"
   sodipodi:docname="winres:hover:ffsvg.svg"
   inkscape:version="0.92.2 2405546, 2018-03-11">
  <metadata
     id="metadata10">
    <rdf:RDF>
      <cc:Work
         rdf:about="">
        <dc:format>image/svg+xml</dc:format>
        <dc:type
           rdf:resource="http://purl.org/dc/dcmitype/StillImage" />
        <dc:title></dc:title>
      </cc:Work>
    </rdf:RDF>
  </metadata>
  <defs
     id="defs8" />
  <sodipodi:namedview
     pagecolor="#ffffff"
     bordercolor="#666666"
     borderopacity="1"
     objecttolerance="10"
     gridtolerance="10"
     guidetolerance="10"
     inkscape:pageopacity="0"
     inkscape:pageshadow="2"
     inkscape:window-width="1366"
     inkscape:window-height="714"
     id="namedview6"
     showgrid="false"
     inkscape:zoom="14.75"
     inkscape:cx="-19.118644"
     inkscape:cy="8"
     inkscape:window-x="0"
     inkscape:window-y="26"
     inkscape:window-maximized="1"
     inkscape:current-layer="svg4" />
  <path
     d="m8 2a6 6 0 0 0 -6 6 6 6 0 0 0 6 6 6 6 0 0 0 6-6 6 6 0 0 0 -6-6zm .5670362 1.7011077v.00154c.096-.00769.19231.021308.2615938.090723l3.38256 3.3886077c.06783.067923.09655.1595077.08921.2540308v.00615c-.010335.2002331-.180806.3694946-.381045.3795408l-3.5625004.1738923-.015123.00462c-.2002378.0109954-.3530254-.1414969-.3417347-.3417354l.1859877-3.5761077c.0108-.1997538.1812846-.370523.3810485-.3810538zm-.90877 4.2988923c.2002384-.011.3530253.1415.3417338.3417308l-.1859877 3.5761152c-.0108.199746-.1812838.370516-.3810485.381046v-.0015c-.096001.0078-.1923084-.02131-.2615923-.09072l-3.3825607-3.3886105c-.0678385-.067923-.0965623-.1595077-.0892139-.2540307l-.003-.00615c.0103308-.200227.1838385-.3694962.3840754-.3795423l3.5594762-.1738923.018146-.00462z"
     fill="#bebebe"
     id="path2"
     style="fill:#0f6ee3;fill-opacity:1" />
</svg>
