/* XPM */
static char * close_inactive_xpm[] = {
"32 34 19 1",
" 	c None",
".	c #8E8E8E",
"+	c #DFDFDF",
"@	c #DCDCDC",
"#	c #DBDBDB",
"$	c #C7C7C7",
"%	c #B2B3B3",
"&	c #A7A8A8",
"*	c #D7D7D7",
"=	c #B0B1B1",
"-	c #A4A5A5",
";	c #C6C7C7",
">	c #C5C5C5",
",	c #C1C1C1",
"'	c #B3B3B3",
")	c #C0C0C0",
"!	c #C2C2C2",
"~	c #A8A8A9",
"{	c #B1B1B1",
"................................",
"++++++++++++++++++++++++++++++++",
"@@@@@@@@@@@@@@@@@@@@@@@@@@@@@@@@",
"@@@@@@@@@@@@@@@@@@@@@@@@@@@@@@@@",
"@@@@@@@@@@@@@@@@@@@@@@@@@@@@@@@@",
"@@@@@@@@@@@@@@@@@@@@@@@@@@@@@@@@",
"@@@@@@@@@@@@@@@@@@@@@@@@@@@@@@@@",
"@@@@@@@@@@@@@@@@@@@@@@@@@@@@@@@@",
"@@@@@@@@@@@@@@@@@@@@@@@@@@@@@@@@",
"@@@@@@@@@@@@@@@@@@@@@@@@@@@@@@@@",
"@@@@@@@@@@@@@@@@@@@@@@@@@@@@@@@@",
"@@@@@@@@@@@@#$%&&%$#@@@@@@@@@@@@",
"@@@@@@@@@@@*=------=*@@@@@@@@@@@",
"@@@@@@@@@@#=--------=#@@@@@@@@@@",
"@@@@@@@@@@;-->,--,>--$@@@@@@@@@@",
"@@@@@@@@@@%--,@,,@,--'@@@@@@@@@@",
"@@@@@@@@@@&---)@@!---&@@@@@@@@@@",
"@@@@@@@@@@&---)@@!---~@@@@@@@@@@",
"@@@@@@@@@@%--,@,,@,--'@@@@@@@@@@",
"@@@@@@@@@@$-->,--,>--$@@@@@@@@@@",
"@@@@@@@@@@#=--------{#@@@@@@@@@@",
"@@@@@@@@@@@*{------{*@@@@@@@@@@@",
"@@@@@@@@@@@@#$'&&'$#@@@@@@@@@@@@",
"@@@@@@@@@@@@@@@@@@@@@@@@@@@@@@@@",
"@@@@@@@@@@@@@@@@@@@@@@@@@@@@@@@@",
"@@@@@@@@@@@@@@@@@@@@@@@@@@@@@@@@",
"@@@@@@@@@@@@@@@@@@@@@@@@@@@@@@@@",
"@@@@@@@@@@@@@@@@@@@@@@@@@@@@@@@@",
"@@@@@@@@@@@@@@@@@@@@@@@@@@@@@@@@",
"@@@@@@@@@@@@@@@@@@@@@@@@@@@@@@@@",
"@@@@@@@@@@@@@@@@@@@@@@@@@@@@@@@@",
"@@@@@@@@@@@@@@@@@@@@@@@@@@@@@@@@",
"@@@@@@@@@@@@@@@@@@@@@@@@@@@@@@@@",
"@@@@@@@@@@@@@@@@@@@@@@@@@@@@@@@@"};
