/* XPM */
static char * hide_inactive_xpm[] = {
"32 34 17 1",
" 	c None",
".	c #8E8E8E",
"+	c #DFDFDF",
"@	c #DCDCDC",
"#	c #DBDBDB",
"$	c #C7C7C7",
"%	c #B2B3B3",
"&	c #A7A8A8",
"*	c #D7D7D7",
"=	c #B0B1B1",
"-	c #A4A5A5",
";	c #C6C7C7",
">	c #B3B3B3",
",	c #B9BABA",
"'	c #CCCCCC",
")	c #A8A8A8",
"!	c #B1B1B1",
"................................",
"++++++++++++++++++++++++++++++++",
"@@@@@@@@@@@@@@@@@@@@@@@@@@@@@@@@",
"@@@@@@@@@@@@@@@@@@@@@@@@@@@@@@@@",
"@@@@@@@@@@@@@@@@@@@@@@@@@@@@@@@@",
"@@@@@@@@@@@@@@@@@@@@@@@@@@@@@@@@",
"@@@@@@@@@@@@@@@@@@@@@@@@@@@@@@@@",
"@@@@@@@@@@@@@@@@@@@@@@@@@@@@@@@@",
"@@@@@@@@@@@@@@@@@@@@@@@@@@@@@@@@",
"@@@@@@@@@@@@@@@@@@@@@@@@@@@@@@@@",
"@@@@@@@@@@@@@@@@@@@@@@@@@@@@@@@@",
"@@@@@@@@@@@@#$%&&%$#@@@@@@@@@@@@",
"@@@@@@@@@@@*=------=*@@@@@@@@@@@",
"@@@@@@@@@@#=--------=#@@@@@@@@@@",
"@@@@@@@@@@;----------$@@@@@@@@@@",
"@@@@@@@@@@%---------->@@@@@@@@@@",
"@@@@@@@@@@&-,'''''',-)@@@@@@@@@@",
"@@@@@@@@@@&-,'''''',-)@@@@@@@@@@",
"@@@@@@@@@@%---------->@@@@@@@@@@",
"@@@@@@@@@@$----------$@@@@@@@@@@",
"@@@@@@@@@@#=--------!#@@@@@@@@@@",
"@@@@@@@@@@@*!------!*@@@@@@@@@@@",
"@@@@@@@@@@@@#$>&&>$#@@@@@@@@@@@@",
"@@@@@@@@@@@@@@@@@@@@@@@@@@@@@@@@",
"@@@@@@@@@@@@@@@@@@@@@@@@@@@@@@@@",
"@@@@@@@@@@@@@@@@@@@@@@@@@@@@@@@@",
"@@@@@@@@@@@@@@@@@@@@@@@@@@@@@@@@",
"@@@@@@@@@@@@@@@@@@@@@@@@@@@@@@@@",
"@@@@@@@@@@@@@@@@@@@@@@@@@@@@@@@@",
"@@@@@@@@@@@@@@@@@@@@@@@@@@@@@@@@",
"@@@@@@@@@@@@@@@@@@@@@@@@@@@@@@@@",
"@@@@@@@@@@@@@@@@@@@@@@@@@@@@@@@@",
"@@@@@@@@@@@@@@@@@@@@@@@@@@@@@@@@",
"@@@@@@@@@@@@@@@@@@@@@@@@@@@@@@@@"};
