/* XPM */
static char * maximize_active_xpm[] = {
"32 34 33 1",
" 	c None",
".	c #8E8E8E",
"+	c #DFDFDF",
"@	c #DCDCDC",
"#	c #D9D9D9",
"$	c #ADAEAE",
"%	c #747677",
"&	c #444749",
"*	c #AEAEAE",
"=	c #D2D2D2",
"-	c #6E6F70",
";	c #2E3436",
">	c #6E7071",
",	c #373C3E",
"'	c #4B4E50",
")	c #4C5051",
"!	c #D3D3D3",
"~	c #595B5D",
"{	c #AEAFAF",
"]	c #747576",
"^	c #565859",
"/	c #8A8B8C",
"(	c #DBDBDB",
"_	c #757777",
":	c #45494A",
"<	c #D6D6D6",
"[	c #8B8C8C",
"}	c #474A4C",
"|	c #DADADA",
"1	c #898A8B",
"2	c #545758",
"3	c #393E3F",
"4	c #767878",
"................................",
"++++++++++++++++++++++++++++++++",
"@@@@@@@@@@@@@@@@@@@@@@@@@@@@@@@@",
"@@@@@@@@@@@@@@@@@@@@@@@@@@@@@@@@",
"@@@@@@@@@@@@@@@@@@@@@@@@@@@@@@@@",
"@@@@@@@@@@@@@@@@@@@@@@@@@@@@@@@@",
"@@@@@@@@@@@@@@@@@@@@@@@@@@@@@@@@",
"@@@@@@@@@@@@@@@@@@@@@@@@@@@@@@@@",
"@@@@@@@@@@@@@@@@@@@@@@@@@@@@@@@@",
"@@@@@@@@@@@@@@@@@@@@@@@@@@@@@@@@",
"@@@@@@@@@@@@@@@@@@@@@@@@@@@@@@@@",
"@@@@@@@@@@@@#$%&&%*#@@@@@@@@@@@@",
"@@@@@@@@@@@=-;;;;;;>=@@@@@@@@@@@",
"@@@@@@@@@@#-;;;;;,';>#@@@@@@@@@@",
"@@@@@@@@@@$;;;)!#@@~;{@@@@@@@@@@",
"@@@@@@@@@@];;^;/(@@);_@@@@@@@@@@",
"@@@@@@@@@@:;;</;[(@,;}@@@@@@@@@@",
"@@@@@@@@@@:;,@|/;[<;;}@@@@@@@@@@",
"@@@@@@@@@@];)@@|1;2;;_@@@@@@@@@@",
"@@@@@@@@@@*;~@@|=';;;{@@@@@@@@@@",
"@@@@@@@@@@#>;'3;;;;;>|@@@@@@@@@@",
"@@@@@@@@@@@=>;;;;;;>=@@@@@@@@@@@",
"@@@@@@@@@@@@|{_::4{|@@@@@@@@@@@@",
"@@@@@@@@@@@@@@@@@@@@@@@@@@@@@@@@",
"@@@@@@@@@@@@@@@@@@@@@@@@@@@@@@@@",
"@@@@@@@@@@@@@@@@@@@@@@@@@@@@@@@@",
"@@@@@@@@@@@@@@@@@@@@@@@@@@@@@@@@",
"@@@@@@@@@@@@@@@@@@@@@@@@@@@@@@@@",
"@@@@@@@@@@@@@@@@@@@@@@@@@@@@@@@@",
"@@@@@@@@@@@@@@@@@@@@@@@@@@@@@@@@",
"@@@@@@@@@@@@@@@@@@@@@@@@@@@@@@@@",
"@@@@@@@@@@@@@@@@@@@@@@@@@@@@@@@@",
"@@@@@@@@@@@@@@@@@@@@@@@@@@@@@@@@",
"@@@@@@@@@@@@@@@@@@@@@@@@@@@@@@@@"};
