/* XPM */
static char * maximize_inactive_xpm[] = {
"32 34 23 1",
" 	c None",
".	c #8E8E8E",
"+	c #DCDCDC",
"@	c #DBDBDB",
"#	c #C6C7C7",
"$	c #B2B3B3",
"%	c #A7A8A8",
"&	c #C7C7C7",
"*	c #D7D7D7",
"=	c #B0B1B1",
"-	c #A4A5A5",
";	c #A5A6A6",
">	c #A8A9A9",
",	c #A9A9A9",
"'	c #ABACAC",
")	c #B2B2B3",
"!	c #AAABAB",
"~	c #B9B9BA",
"{	c #D9D9D9",
"]	c #B9BABA",
"^	c #A8A8A8",
"/	c #B9B9B9",
"(	c #B3B3B3",
"................................",
"++++++++++++++++++++++++++++++++",
"++++++++++++++++++++++++++++++++",
"++++++++++++++++++++++++++++++++",
"++++++++++++++++++++++++++++++++",
"++++++++++++++++++++++++++++++++",
"++++++++++++++++++++++++++++++++",
"++++++++++++++++++++++++++++++++",
"++++++++++++++++++++++++++++++++",
"++++++++++++++++++++++++++++++++",
"++++++++++++++++++++++++++++++++",
"++++++++++++@#$%%$&@++++++++++++",
"+++++++++++*=------=*+++++++++++",
"++++++++++@=-----;>-=@++++++++++",
"++++++++++#---,*@++'-&++++++++++",
"++++++++++)--!-~@++,-$++++++++++",
"++++++++++%--{~-]@+;-^++++++++++",
"++++++++++%-;+@~-]{--^++++++++++",
"++++++++++)-,++@/-!--$++++++++++",
"++++++++++&-'++@*>---&++++++++++",
"++++++++++@=->;-----=@++++++++++",
"+++++++++++*=------=*+++++++++++",
"++++++++++++@&$%%(&@++++++++++++",
"++++++++++++++++++++++++++++++++",
"++++++++++++++++++++++++++++++++",
"++++++++++++++++++++++++++++++++",
"++++++++++++++++++++++++++++++++",
"++++++++++++++++++++++++++++++++",
"++++++++++++++++++++++++++++++++",
"++++++++++++++++++++++++++++++++",
"++++++++++++++++++++++++++++++++",
"++++++++++++++++++++++++++++++++",
"++++++++++++++++++++++++++++++++",
"++++++++++++++++++++++++++++++++"};
